<svg xmlns="http://www.w3.org/2000/svg" viewBox="0 0 180 180">
  <defs>
    <linearGradient id="bg" x1="0%" y1="0%" x2="100%" y2="100%">
      <stop offset="0%" style="stop-color:#4CAF50"/>
      <stop offset="100%" style="stop-color:#8BC34A"/>
    </linearGradient>
  </defs>
  <rect width="180" height="180" rx="40" fill="url(#bg)"/>
  <g fill="#FFFFFF" transform="translate(90, 90) scale(0.28) translate(-256, -256)">
    <ellipse cx="180" cy="340" rx="45" ry="35" transform="rotate(-15 180 340)"/>
    <rect x="215" y="150" width="18" height="200" rx="9"/>
    <ellipse cx="340" cy="320" rx="45" ry="35" transform="rotate(-15 340 320)"/>
    <rect x="375" y="130" width="18" height="200" rx="9"/>
    <rect x="224" y="130" width="160" height="20" rx="10" transform="rotate(-8 304 140)"/>
    <rect x="224" y="160" width="160" height="16" rx="8" transform="rotate(-8 304 168)"/>
  </g>
  <circle cx="45" cy="52" r="7" fill="#FFD700" opacity="0.9"/>
  <circle cx="140" cy="35" r="5" fill="#FF9800" opacity="0.9"/>
  <circle cx="35" cy="87" r="4" fill="#E91E63" opacity="0.8"/>
</svg>
